<?xml version="1.0" encoding="UTF-8"?>
<svg id="Camada_2" data-name="Camada 2" xmlns="http://www.w3.org/2000/svg" viewBox="0 0 1068.1 432.5">
  <defs>
    <style>
      .cls-1 {
        fill: #035084;
      }
    </style>
  </defs>
  <g id="Camada_1-2" data-name="Camada 1">
    <path id="E" class="cls-1" d="M237.9,105.1H105.1v65.5h104.4v104.4h-104.4v52.5h196.5v105H0V0h301.5v41.4c0,17.3-6.2,32.2-18.5,44.8-12.3,12.6-27.4,18.8-45.1,18.8v.1Z"/>
    <path id="T" class="cls-1" d="M314.5,0h332.4c0,19.4-4.7,37-14.2,52.8-9.5,15.9-22.1,28.5-38,38s-33.5,14.2-52.8,14.2h-15.4v327.4h-104.4V105.1h-107.5V0h-.1Z"/>
    <path id="P" class="cls-1" d="M832.8,0c19.4,0,37,4.7,52.8,14.2,15.9,9.5,28.4,22.1,37.7,38s13.9,33.5,13.9,52.8v65.5c0,19.4-4.6,37-13.9,52.8-9.3,15.9-21.8,28.4-37.7,37.7s-33.5,13.9-52.8,13.9h-65.5v157.6h-105V0h170.5ZM767.3,170.6h65.5v-65.5h-65.5v65.5Z"/>
    <path id="I" class="cls-1" d="M1031.7,0h36.4v432.5h-105V68.6c0-12.4,3.1-23.8,9.3-34.3s14.5-18.9,25-25C1007.9,3.1,1019.3,0,1031.7,0Z"/>
  </g>
</svg>